<svg width="16" height="21" viewBox="0 0 16 21" fill="none" xmlns="http://www.w3.org/2000/svg">
<path d="M8 0C12.4444 0 16 3.5 16 7.875C16 12.25 12.4444 15.75 8 21C3.55555 15.75 0 12.25 0 7.875C0 3.5 3.55555 0 8 0Z" fill="black"/>
<path d="M6.58577 5.17156C6.19524 4.78103 5.56208 4.78103 5.17156 5.17156C4.78103 5.56208 4.78103 6.19524 5.17156 6.58577L6.5858 8.00002L5.17159 9.41423C4.78106 9.80476 4.78106 10.4379 5.17159 10.8284C5.56211 11.219 6.19527 11.219 6.5858 10.8284L8.00002 9.41423L9.4142 10.8284C9.80472 11.2189 10.4379 11.2189 10.8284 10.8284C11.2189 10.4379 11.2189 9.80472 10.8284 9.4142L9.41423 8.00002L10.8284 6.5858C11.219 6.19528 11.219 5.56211 10.8284 5.17159C10.4379 4.78107 9.80475 4.78107 9.41423 5.17159L8.00002 6.5858L6.58577 5.17156Z" fill="white"/>
</svg>
