<svg width="16" height="16" viewBox="0 0 16 16" fill="none" xmlns="http://www.w3.org/2000/svg">
<rect x="8" width="11.3137" height="11.3137" rx="1" transform="rotate(45 8 0)" fill="black"/>
<path d="M10.9713 7.34256C11.0689 7.24493 11.0689 7.08664 10.9713 6.98901C10.8737 6.89138 10.7154 6.89138 10.6177 6.98901L10.9713 7.34256ZM9.77846 6.67227L9.54418 6.75979L9.54678 6.7662L9.77846 6.67227ZM9.24024 6.29488L9.24268 6.04488H9.24024V6.29488ZM7.13672 6.29488L7.13098 6.54488H7.13672V6.29488ZM6.58428 6.65979L6.8164 6.75263L6.81641 6.7526L6.58428 6.65979ZM5.74587 6.98901C5.64824 6.89138 5.48995 6.89138 5.39232 6.98901C5.29468 7.08664 5.29468 7.24493 5.39232 7.34256L5.74587 6.98901ZM6.7303 8.65759C6.59223 8.65759 6.4803 8.76952 6.4803 8.90759C6.4803 9.04566 6.59223 9.15759 6.7303 9.15759V8.65759ZM6.7332 9.15759C6.87127 9.15759 6.9832 9.04566 6.9832 8.90759C6.9832 8.76952 6.87127 8.65759 6.7332 8.65759V9.15759ZM9.63331 8.65759C9.49524 8.65759 9.38331 8.76952 9.38331 8.90759C9.38331 9.04566 9.49524 9.15759 9.63331 9.15759V8.65759ZM9.63621 9.15759C9.77428 9.15759 9.88621 9.04566 9.88621 8.90759C9.88621 8.76952 9.77428 8.65759 9.63621 8.65759V9.15759ZM5.89969 10.6494C5.89969 10.7875 6.01162 10.8994 6.14969 10.8994C6.28777 10.8994 6.39969 10.7875 6.39969 10.6494L5.89969 10.6494ZM9.96391 10.6494C9.96391 10.7875 10.0758 10.8994 10.2139 10.8994C10.352 10.8994 10.4639 10.7875 10.4639 10.6494H9.96391ZM10.9999 5L11.1767 4.82322L10.9999 4.64645L10.8231 4.82322L10.9999 5ZM9.82315 5.82322C9.72552 5.92085 9.72552 6.07915 9.82315 6.17678C9.92078 6.27441 10.0791 6.27441 10.1767 6.17678L9.82315 5.82322ZM11.8231 6.17678C11.9208 6.27441 12.0791 6.27441 12.1767 6.17678C12.2743 6.07915 12.2743 5.92085 12.1767 5.82322L11.8231 6.17678ZM10.6177 6.98901L10.0371 7.56961L10.3907 7.92316L10.9713 7.34256L10.6177 6.98901ZM10.4456 7.65246L10.0101 6.57835L9.54678 6.7662L9.98223 7.84031L10.4456 7.65246ZM10.0127 6.58478C9.9539 6.42752 9.84888 6.29176 9.71143 6.19538L9.42437 6.60477C9.47908 6.64313 9.52089 6.69717 9.54427 6.75976L10.0127 6.58478ZM9.71143 6.19538C9.57398 6.099 9.41055 6.04653 9.24268 6.04489L9.2378 6.54487C9.30462 6.54552 9.36966 6.5664 9.42437 6.60477L9.71143 6.19538ZM9.24024 6.04488H7.13672V6.54488H9.24024V6.04488ZM7.14246 6.04495C6.97323 6.04106 6.80684 6.08897 6.6656 6.18227L6.94117 6.59947C6.99739 6.56234 7.06362 6.54327 7.13098 6.54481L7.14246 6.04495ZM6.6656 6.18227C6.52435 6.27557 6.41498 6.4098 6.35214 6.56698L6.81641 6.7526C6.84142 6.69004 6.88495 6.63661 6.94117 6.59947L6.6656 6.18227ZM6.35215 6.56695L5.91757 7.65355L6.38182 7.83922L6.8164 6.75263L6.35215 6.56695ZM6.32647 7.56961L5.74587 6.98901L5.39232 7.34256L5.97292 7.92316L6.32647 7.56961ZM6.7303 9.15759H6.7332V8.65759H6.7303V9.15759ZM9.63331 9.15759H9.63621V8.65759H9.63331V9.15759ZM6.14969 7.99639H10.2139V7.49639H6.14969V7.99639ZM10.2139 7.99639C10.3965 7.99639 10.5445 8.1444 10.5445 8.32699H11.0445C11.0445 7.86826 10.6726 7.49639 10.2139 7.49639V7.99639ZM10.5445 8.32699V9.48819H11.0445V8.32699H10.5445ZM10.5445 9.48819C10.5445 9.67078 10.3965 9.8188 10.2139 9.8188V10.3188C10.6726 10.3188 11.0445 9.94692 11.0445 9.48819H10.5445ZM10.2139 9.8188H6.14969V10.3188H10.2139V9.8188ZM6.14969 9.8188C5.96711 9.8188 5.81909 9.67078 5.81909 9.48819H5.31909C5.31909 9.94692 5.69097 10.3188 6.14969 10.3188V9.8188ZM5.81909 9.48819V8.32699H5.31909V9.48819H5.81909ZM5.81909 8.32699C5.81909 8.1444 5.96711 7.99639 6.14969 7.99639V7.49639C5.69097 7.49639 5.31909 7.86826 5.31909 8.32699H5.81909ZM5.89969 10.0688L5.89969 10.6494L6.39969 10.6494L6.39969 10.0688L5.89969 10.0688ZM9.96391 10.0688V10.6494H10.4639V10.0688H9.96391ZM10.8231 4.82322L9.82315 5.82322L10.1767 6.17678L11.1767 5.17678L10.8231 4.82322ZM10.8231 5.17678L11.8231 6.17678L12.1767 5.82322L11.1767 4.82322L10.8231 5.17678Z" fill="#FFFDFD"/>
</svg>
