<svg width="155" height="37" viewBox="0 0 155 37" fill="none" xmlns="http://www.w3.org/2000/svg">
<path fill-rule="evenodd" clip-rule="evenodd" d="M48.4 36.1C45.4667 36.1 42.9167 35.6167 40.7501 34.65C38.5834 33.6833 33.3333 29.3666 32 27.7H22.75L20.6 36.0999H13L22.45 1.19995H33.05L39.7447 25.9242L39.7394 25.9254C40.5481 26.6599 42.6682 28.4081 44.0001 29C45.5334 29.6667 47.0834 30 48.65 30C50.4501 30 51.8167 29.6 52.7501 28.8C53.6834 28 54.15 26.85 54.15 25.35C54.15 24.1167 53.7834 23.1833 53.05 22.55C52.35 21.9167 51.1501 21.4667 49.4501 21.2L45.8 20.6C42.6667 20.0667 40.4001 18.9167 39.0001 17.15C37.6001 15.35 36.9 13.1667 36.9 10.6C36.9 7.23333 38 4.63333 40.2001 2.8C42.4001 0.933333 45.4834 0 49.4501 0C52.1501 0 54.5001 0.416666 56.5001 1.25C58.1001 1.91668 59.4548 2.77536 60.5641 3.82606C60.7179 3.94537 60.8637 4.06993 61 4.19995C62.6793 5.80164 64.05 9.29995 64.05 9.29995L66.75 16.1499H67.15L69.85 9.29995L73 2.13698V18.6829L70.55 23.7499V36.0999H63.05V23.7499L55.2255 7.78237C54.7765 7.48504 54.3013 7.22425 53.8 7C52.5334 6.4 51.1001 6.1 49.5001 6.1C46.1334 6.1 44.4501 7.48334 44.4501 10.25C44.4501 11.45 44.8167 12.35 45.55 12.95C46.3167 13.55 47.5501 14 49.2501 14.3L52.9 14.95C55.7334 15.45 57.9167 16.5167 59.4501 18.15C60.9834 19.7833 61.7501 21.9833 61.7501 24.75C61.7501 26.3833 61.4667 27.9 60.9001 29.3C60.3334 30.6667 59.4834 31.8667 58.3501 32.9C57.2167 33.9 55.8167 34.6833 54.15 35.25C52.5167 35.8167 50.6 36.1 48.4 36.1ZM27.75 8.44995H27.35L23.95 21.65H31.15L27.75 8.44995Z" fill="black"/>
<path d="M0 1.19995V36.0999H12L13.6653 29.95H7.5V21.5H15.9533L17.6186 15.35H7.5V7.34995H19.7847L21.45 1.19995H0Z" fill="#FF9D00"/>
<path fill-rule="evenodd" clip-rule="evenodd" d="M80.4 35.9H73V1H86.5C88.2 1 89.7167 1.26667 91.05 1.8C92.3833 2.3 93.5 3.03333 94.4 4C95.3333 4.96667 96.0333 6.13333 96.5 7.5C96.9667 8.86667 97.2 10.4 97.2 12.1C97.2 14.5667 96.6667 16.6833 95.6 18.45C94.5333 20.2167 93.0167 21.3833 91.05 21.95L97.9 35.9H89.7L83.85 22.95H80.4V35.9ZM84.7 17.15C86.4667 17.15 87.6833 16.8167 88.35 16.15C89.05 15.4833 89.4 14.3833 89.4 12.85V11.35C89.4 9.81667 89.05 8.71667 88.35 8.05C87.6833 7.38333 86.4667 7.05 84.7 7.05H80.4V17.15H84.7Z" fill="#FF9D00"/>
<path d="M95.4 4C96.1092 4.73452 96.6837 5.58452 97.1234 6.55H99.5V30.35H96.1747L98.9 35.9H114.5V30.35H107V6.55H114.5V1H88V1.00786C89.4988 1.05547 90.8488 1.31952 92.05 1.8C93.3833 2.3 94.5 3.03333 95.4 4Z" fill="black"/>
<path fill-rule="evenodd" clip-rule="evenodd" d="M115 1H126.25C130.95 1 134.433 2.5 136.7 5.5C138.967 8.5 140.1 12.8167 140.1 18.45C140.1 24.0833 138.967 28.4 136.7 31.4C134.433 34.4 130.95 35.9 126.25 35.9H115V1ZM125.75 30C127.983 30 129.617 29.2833 130.65 27.85C131.683 26.4167 132.2 24.3333 132.2 21.6V15.25C132.2 12.55 131.683 10.4833 130.65 9.05C129.617 7.61667 127.983 6.9 125.75 6.9H122.4V30H125.75Z" fill="black"/>
<path d="M155 7.15H138.761C138.44 6.56169 138.087 6.01169 137.7 5.5C135.556 2.66183 132.322 1.1662 128 1.0131V1H155V7.15Z" fill="black"/>
<path d="M140.995 21.3H154.5V15.15H140.957C141.052 16.1946 141.1 17.2946 141.1 18.45C141.1 19.4407 141.065 20.3907 140.995 21.3Z" fill="black"/>
<path d="M128 35.8869V35.9H155V29.75H138.761C138.44 30.3383 138.087 30.8883 137.7 31.4C135.556 34.2382 132.322 35.7338 128 35.8869Z" fill="black"/>
</svg>
