<svg width="42" height="49" viewBox="0 0 42 49" fill="none" xmlns="http://www.w3.org/2000/svg">
<path d="M3 49C1.34315 49 0 47.6569 0 46V3.00363C0 1.34678 1.34315 0.00363403 3 0.00363403H9.84489L16.3845 9.30654L9.26469 9.30674V20.4705L11.7353 24.1917L15.6792 29.7736H9.26469V39.6969H22.6906L29.2637 49H3Z" fill="white"/>
<path d="M17.2941 9.30311L16.9853 9.30674L10.4456 0H17.2941C25.4809 0 32.1176 6.66424 32.1176 14.885C32.1176 19.8943 29.6533 24.3257 25.8756 27.0235L40.8323 47.4084C41.3169 48.0689 40.8452 49 40.026 49H29.8839L21.1184 36.594L12.3529 24.1881L9.88234 20.4668H17.2941C18.8382 20.4668 20.3823 19.5365 20.3823 19.5365C21.9346 18.5464 22.8529 16.8683 22.8529 14.885C22.8529 11.8022 20.3641 9.30311 17.2941 9.30311Z" fill="white"/>
</svg>
