<svg width="57" height="57" viewBox="0 0 57 57" fill="none" xmlns="http://www.w3.org/2000/svg">
<path d="M2.67001 28.3351H10.3695" stroke="black" stroke-width="4.5" stroke-linecap="round" stroke-linejoin="round"/>
<path d="M46.3005 28.3351H54" stroke="black" stroke-width="4.5" stroke-linecap="round" stroke-linejoin="round"/>
<path d="M28.335 2.66998V10.3695" stroke="black" stroke-width="4.5" stroke-linecap="round" stroke-linejoin="round"/>
<path d="M28.335 46.3005V54" stroke="black" stroke-width="4.5" stroke-linecap="round" stroke-linejoin="round"/>
<path d="M28.335 46.3004C38.257 46.3004 46.3005 38.257 46.3005 28.3349C46.3005 18.4129 38.257 10.3694 28.335 10.3694C18.4129 10.3694 10.3695 18.4129 10.3695 28.3349C10.3695 38.257 18.4129 46.3004 28.335 46.3004Z" stroke="black" stroke-width="4.5" stroke-linecap="round" stroke-linejoin="round"/>
<path d="M28.3298 28.7148C31.1642 28.7148 33.4618 26.4171 33.4618 23.5828C33.4618 20.7485 31.1642 18.4508 28.3298 18.4508C25.4955 18.4508 23.1979 20.7485 23.1979 23.5828C23.1979 26.4171 25.4955 28.7148 28.3298 28.7148Z" stroke="black" stroke-width="3" stroke-linecap="round" stroke-linejoin="round"/>
<path d="M36.541 36.9259C36.541 34.7481 35.6759 32.6596 34.136 31.1197C32.5961 29.5798 30.5076 28.7147 28.3298 28.7147C26.1521 28.7147 24.0636 29.5798 22.5237 31.1197C20.9838 32.6596 20.1187 34.7481 20.1187 36.9259" stroke="black" stroke-width="3" stroke-linecap="round" stroke-linejoin="round"/>
</svg>
