<svg width="16" height="21" viewBox="0 0 16 21" fill="none" xmlns="http://www.w3.org/2000/svg">
<path d="M8 0C12.4444 0 16 3.5 16 7.875C16 12.25 12.4444 15.75 8 21C3.55555 15.75 0 12.25 0 7.875C0 3.5 3.55555 0 8 0Z" fill="black"/>
<path fill-rule="evenodd" clip-rule="evenodd" d="M8.00003 4C8.55232 4 9.00003 4.44772 9.00003 5V7.00002H11C11.5523 7.00002 12 7.44773 12 8.00002C12 8.5523 11.5523 9.00002 11 9.00002H9.00003V11C9.00003 11.5523 8.55232 12 8.00003 12C7.44775 12 7.00003 11.5523 7.00003 11V9.00002H5C4.44772 9.00002 4 8.5523 4 8.00002C4 7.44773 4.44772 7.00002 5 7.00002H7.00003L7.00003 5C7.00003 4.44772 7.44775 4 8.00003 4Z" fill="white"/>
</svg>
