<svg width="16" height="16" viewBox="0 0 16 16" fill="none" xmlns="http://www.w3.org/2000/svg">
<rect x="8" width="11.3137" height="11.3137" rx="1" transform="rotate(45 8 0)" fill="black"/>
<path d="M10.9713 7.3426C11.0689 7.24497 11.0689 7.08668 10.9713 6.98905C10.8737 6.89142 10.7154 6.89142 10.6177 6.98905L10.9713 7.3426ZM9.77846 6.67231L9.54418 6.75983L9.54678 6.76624L9.77846 6.67231ZM9.24024 6.29492L9.24268 6.04492H9.24024V6.29492ZM7.13672 6.29492L7.13098 6.54492H7.13672V6.29492ZM6.58428 6.65983L6.8164 6.75266L6.81641 6.75264L6.58428 6.65983ZM5.74587 6.98905C5.64824 6.89142 5.48995 6.89142 5.39232 6.98905C5.29468 7.08668 5.29468 7.24497 5.39232 7.3426L5.74587 6.98905ZM6.7303 8.65763C6.59223 8.65763 6.4803 8.76956 6.4803 8.90763C6.4803 9.0457 6.59223 9.15763 6.7303 9.15763V8.65763ZM6.7332 9.15763C6.87127 9.15763 6.9832 9.0457 6.9832 8.90763C6.9832 8.76956 6.87127 8.65763 6.7332 8.65763V9.15763ZM9.63331 8.65763C9.49524 8.65763 9.38331 8.76956 9.38331 8.90763C9.38331 9.0457 9.49524 9.15763 9.63331 9.15763V8.65763ZM9.63621 9.15763C9.77428 9.15763 9.88621 9.0457 9.88621 8.90763C9.88621 8.76956 9.77428 8.65763 9.63621 8.65763V9.15763ZM5.89969 10.6494C5.89969 10.7875 6.01162 10.8994 6.14969 10.8994C6.28777 10.8994 6.39969 10.7875 6.39969 10.6494H5.89969ZM9.96391 10.6494C9.96391 10.7875 10.0758 10.8994 10.2139 10.8994C10.352 10.8994 10.4639 10.7875 10.4639 10.6494H9.96391ZM11 6L10.8233 6.17678L11 6.35355L11.1768 6.17678L11 6ZM12.1768 5.17678C12.2745 5.07915 12.2745 4.92085 12.1768 4.82322C12.0792 4.72559 11.9209 4.72559 11.8233 4.82322L12.1768 5.17678ZM10.1768 4.82322C10.0792 4.72559 9.9209 4.72559 9.82327 4.82322C9.72564 4.92085 9.72564 5.07915 9.82327 5.17678L10.1768 4.82322ZM10.6177 6.98905L10.0371 7.56965L10.3907 7.9232L10.9713 7.3426L10.6177 6.98905ZM10.4456 7.6525L10.0101 6.57838L9.54678 6.76624L9.98223 7.84035L10.4456 7.6525ZM10.0127 6.58482C9.9539 6.42756 9.84888 6.2918 9.71143 6.19542L9.42437 6.6048C9.47908 6.64317 9.52089 6.69721 9.54427 6.7598L10.0127 6.58482ZM9.71143 6.19542C9.57398 6.09904 9.41055 6.04657 9.24268 6.04493L9.2378 6.54491C9.30462 6.54556 9.36966 6.56644 9.42437 6.6048L9.71143 6.19542ZM9.24024 6.04492H7.13672V6.54492H9.24024V6.04492ZM7.14246 6.04498C6.97323 6.0411 6.80684 6.08901 6.6656 6.18231L6.94117 6.59951C6.99739 6.56238 7.06362 6.54331 7.13098 6.54485L7.14246 6.04498ZM6.6656 6.18231C6.52435 6.27561 6.41498 6.40984 6.35214 6.56702L6.81641 6.75264C6.84142 6.69007 6.88495 6.63665 6.94117 6.59951L6.6656 6.18231ZM6.35215 6.56699L5.91757 7.65359L6.38182 7.83926L6.8164 6.75266L6.35215 6.56699ZM6.32647 7.56965L5.74587 6.98905L5.39232 7.3426L5.97292 7.9232L6.32647 7.56965ZM6.7303 9.15763H6.7332V8.65763H6.7303V9.15763ZM9.63331 9.15763H9.63621V8.65763H9.63331V9.15763ZM6.14969 7.99643H10.2139V7.49643H6.14969V7.99643ZM10.2139 7.99643C10.3965 7.99643 10.5445 8.14444 10.5445 8.32703H11.0445C11.0445 7.8683 10.6726 7.49643 10.2139 7.49643V7.99643ZM10.5445 8.32703V9.48823H11.0445V8.32703H10.5445ZM10.5445 9.48823C10.5445 9.67082 10.3965 9.81884 10.2139 9.81884V10.3188C10.6726 10.3188 11.0445 9.94696 11.0445 9.48823H10.5445ZM10.2139 9.81884H6.14969V10.3188H10.2139V9.81884ZM6.14969 9.81884C5.96711 9.81884 5.81909 9.67082 5.81909 9.48823H5.31909C5.31909 9.94696 5.69097 10.3188 6.14969 10.3188V9.81884ZM5.81909 9.48823V8.32703H5.31909V9.48823H5.81909ZM5.81909 8.32703C5.81909 8.14444 5.96711 7.99643 6.14969 7.99643V7.49643C5.69097 7.49643 5.31909 7.8683 5.31909 8.32703H5.81909ZM5.89969 10.0688L5.89969 10.6494H6.39969L6.39969 10.0688H5.89969ZM9.96391 10.0688V10.6494H10.4639V10.0688H9.96391ZM11.1768 6.17678L12.1768 5.17678L11.8233 4.82322L10.8233 5.82322L11.1768 6.17678ZM11 6C11.1768 5.82322 11.1768 5.82322 11.1768 5.82322C11.1768 5.82321 11.1768 5.8232 11.1768 5.8232C11.1768 5.82319 11.1768 5.82317 11.1768 5.82316C11.1767 5.82315 11.1767 5.82313 11.1767 5.82311C11.1767 5.82309 11.1767 5.82307 11.1767 5.82305C11.1766 5.82303 11.1766 5.823 11.1766 5.82297C11.1765 5.82295 11.1765 5.82292 11.1765 5.82288C11.1765 5.82285 11.1764 5.82282 11.1764 5.82278C11.1763 5.82274 11.1763 5.8227 11.1763 5.82266C11.1762 5.82262 11.1762 5.82258 11.1761 5.82253C11.1761 5.82249 11.176 5.82244 11.176 5.82239C11.1759 5.82234 11.1759 5.82228 11.1758 5.82223C11.1758 5.82217 11.1757 5.82212 11.1757 5.82206C11.1756 5.822 11.1755 5.82194 11.1755 5.82187C11.1754 5.82181 11.1753 5.82174 11.1753 5.82167C11.1752 5.82161 11.1751 5.82154 11.1751 5.82146C11.175 5.82139 11.1749 5.82132 11.1748 5.82124C11.1748 5.82116 11.1747 5.82108 11.1746 5.821C11.1745 5.82092 11.1744 5.82083 11.1743 5.82075C11.1743 5.82066 11.1742 5.82057 11.1741 5.82048C11.174 5.82039 11.1739 5.8203 11.1738 5.8202C11.1737 5.82011 11.1736 5.82001 11.1735 5.81991C11.1734 5.81981 11.1733 5.81971 11.1732 5.81961C11.1731 5.8195 11.173 5.8194 11.1729 5.81929C11.1728 5.81918 11.1727 5.81907 11.1726 5.81896C11.1724 5.81885 11.1723 5.81873 11.1722 5.81862C11.1721 5.8185 11.172 5.81838 11.1719 5.81826C11.1717 5.81814 11.1716 5.81802 11.1715 5.81789C11.1714 5.81777 11.1712 5.81764 11.1711 5.81751C11.171 5.81738 11.1708 5.81725 11.1707 5.81711C11.1706 5.81698 11.1704 5.81684 11.1703 5.8167C11.1702 5.81657 11.17 5.81643 11.1699 5.81628C11.1697 5.81614 11.1696 5.816 11.1695 5.81585C11.1693 5.8157 11.1692 5.81555 11.169 5.8154C11.1689 5.81525 11.1687 5.8151 11.1685 5.81494C11.1684 5.81479 11.1682 5.81463 11.1681 5.81447C11.1679 5.81431 11.1678 5.81415 11.1676 5.81399C11.1674 5.81382 11.1673 5.81366 11.1671 5.81349C11.1669 5.81332 11.1668 5.81315 11.1666 5.81298C11.1664 5.81281 11.1662 5.81263 11.1661 5.81246C11.1659 5.81228 11.1657 5.8121 11.1655 5.81192C11.1653 5.81174 11.1652 5.81156 11.165 5.81138C11.1648 5.81119 11.1646 5.81101 11.1644 5.81082C11.1642 5.81063 11.164 5.81044 11.1638 5.81025C11.1637 5.81005 11.1635 5.80986 11.1633 5.80966C11.1631 5.80946 11.1629 5.80927 11.1627 5.80907C11.1625 5.80886 11.1623 5.80866 11.1621 5.80846C11.1619 5.80825 11.1616 5.80804 11.1614 5.80784C11.1612 5.80763 11.161 5.80742 11.1608 5.8072C11.1606 5.80699 11.1604 5.80677 11.1602 5.80656C11.1599 5.80634 11.1597 5.80612 11.1595 5.8059C11.1593 5.80568 11.1591 5.80546 11.1588 5.80523C11.1586 5.80501 11.1584 5.80478 11.1582 5.80455C11.1579 5.80432 11.1577 5.80409 11.1575 5.80386C11.1572 5.80362 11.157 5.80339 11.1568 5.80315C11.1565 5.80291 11.1563 5.80268 11.156 5.80243C11.1558 5.80219 11.1556 5.80195 11.1553 5.8017C11.1551 5.80146 11.1548 5.80121 11.1546 5.80096C11.1543 5.80072 11.1541 5.80046 11.1538 5.80021C11.1536 5.79996 11.1533 5.7997 11.153 5.79945C11.1528 5.79919 11.1525 5.79893 11.1523 5.79867C11.152 5.79841 11.1517 5.79815 11.1515 5.79788C11.1512 5.79762 11.151 5.79735 11.1507 5.79708C11.1504 5.79681 11.1501 5.79654 11.1499 5.79627C11.1496 5.796 11.1493 5.79573 11.1491 5.79545C11.1488 5.79517 11.1485 5.7949 11.1482 5.79462C11.1479 5.79434 11.1477 5.79405 11.1474 5.79377C11.1471 5.79349 11.1468 5.7932 11.1465 5.79291C11.1462 5.79262 11.1459 5.79233 11.1456 5.79204C11.1454 5.79175 11.1451 5.79146 11.1448 5.79116C11.1445 5.79087 11.1442 5.79057 11.1439 5.79027C11.1436 5.78997 11.1433 5.78967 11.143 5.78937C11.1427 5.78907 11.1424 5.78876 11.1421 5.78846C11.1418 5.78815 11.1414 5.78784 11.1411 5.78753C11.1408 5.78722 11.1405 5.78691 11.1402 5.78659C11.1399 5.78628 11.1396 5.78596 11.1392 5.78565C11.1389 5.78533 11.1386 5.78501 11.1383 5.78469C11.138 5.78437 11.1376 5.78404 11.1373 5.78372C11.137 5.78339 11.1367 5.78306 11.1363 5.78274C11.136 5.78241 11.1357 5.78208 11.1353 5.78174C11.135 5.78141 11.1347 5.78108 11.1343 5.78074C11.134 5.78041 11.1337 5.78007 11.1333 5.77973C11.133 5.77939 11.1326 5.77905 11.1323 5.7787C11.132 5.77836 11.1316 5.77801 11.1313 5.77767C11.1309 5.77732 11.1306 5.77697 11.1302 5.77662C11.1299 5.77627 11.1295 5.77592 11.1292 5.77556C11.1288 5.77521 11.1285 5.77485 11.1281 5.77449C11.1277 5.77414 11.1274 5.77378 11.127 5.77342C11.1267 5.77305 11.1263 5.77269 11.1259 5.77233C11.1256 5.77196 11.1252 5.77159 11.1248 5.77123C11.1245 5.77086 11.1241 5.77049 11.1237 5.77012C11.1233 5.76974 11.123 5.76937 11.1226 5.76899C11.1222 5.76862 11.1218 5.76824 11.1215 5.76786C11.1211 5.76748 11.1207 5.7671 11.1203 5.76672C11.1199 5.76634 11.1196 5.76595 11.1192 5.76557C11.1188 5.76518 11.1184 5.76479 11.118 5.7644C11.1176 5.76401 11.1172 5.76362 11.1168 5.76323C11.1164 5.76284 11.116 5.76244 11.1156 5.76205C11.1153 5.76165 11.1149 5.76125 11.1145 5.76085C11.1141 5.76045 11.1137 5.76005 11.1132 5.75965C11.1128 5.75924 11.1124 5.75884 11.112 5.75843C11.1116 5.75802 11.1112 5.75762 11.1108 5.75721C11.1104 5.7568 11.11 5.75638 11.1096 5.75597C11.1092 5.75556 11.1087 5.75514 11.1083 5.75473C11.1079 5.75431 11.1075 5.75389 11.1071 5.75347C11.1067 5.75305 11.1062 5.75263 11.1058 5.7522C11.1054 5.75178 11.105 5.75136 11.1045 5.75093C11.1041 5.7505 11.1037 5.75007 11.1032 5.74964C11.1028 5.74921 11.1024 5.74878 11.1019 5.74835C11.1015 5.74791 11.1011 5.74748 11.1006 5.74704C11.1002 5.74661 11.0998 5.74617 11.0993 5.74573C11.0989 5.74529 11.0984 5.74485 11.098 5.7444C11.0976 5.74396 11.0971 5.74351 11.0967 5.74307C11.0962 5.74262 11.0958 5.74217 11.0953 5.74172C11.0949 5.74127 11.0944 5.74082 11.094 5.74037C11.0935 5.73991 11.0931 5.73946 11.0926 5.739C11.0921 5.73855 11.0917 5.73809 11.0912 5.73763C11.0908 5.73717 11.0903 5.73671 11.0898 5.73625C11.0894 5.73578 11.0889 5.73532 11.0885 5.73485C11.088 5.73439 11.0875 5.73392 11.0871 5.73345C11.0866 5.73298 11.0861 5.73251 11.0856 5.73204C11.0852 5.73157 11.0847 5.73109 11.0842 5.73062C11.0837 5.73014 11.0833 5.72966 11.0828 5.72919C11.0823 5.72871 11.0818 5.72823 11.0813 5.72775C11.0809 5.72726 11.0804 5.72678 11.0799 5.7263C11.0794 5.72581 11.0789 5.72532 11.0784 5.72484C11.078 5.72435 11.0775 5.72386 11.077 5.72337C11.0765 5.72288 11.076 5.72238 11.0755 5.72189C11.075 5.7214 11.0745 5.7209 11.074 5.7204C11.0735 5.71991 11.073 5.71941 11.0725 5.71891C11.072 5.71841 11.0715 5.71791 11.071 5.7174C11.0705 5.7169 11.07 5.71639 11.0695 5.71589C11.069 5.71538 11.0685 5.71487 11.068 5.71437C11.0675 5.71386 11.0669 5.71335 11.0664 5.71283C11.0659 5.71232 11.0654 5.71181 11.0649 5.71129C11.0644 5.71078 11.0639 5.71026 11.0633 5.70974C11.0628 5.70922 11.0623 5.7087 11.0618 5.70818C11.0613 5.70766 11.0607 5.70714 11.0602 5.70661C11.0597 5.70609 11.0592 5.70556 11.0586 5.70504C11.0581 5.70451 11.0576 5.70398 11.0571 5.70345C11.0565 5.70292 11.056 5.70239 11.0555 5.70186C11.0549 5.70132 11.0544 5.70079 11.0539 5.70025C11.0533 5.69972 11.0528 5.69918 11.0522 5.69864C11.0517 5.6981 11.0512 5.69756 11.0506 5.69702C11.0501 5.69648 11.0495 5.69594 11.049 5.69539C11.0484 5.69485 11.0479 5.6943 11.0474 5.69376C11.0468 5.69321 11.0463 5.69266 11.0457 5.69211C11.0452 5.69156 11.0446 5.69101 11.0441 5.69045C11.0435 5.6899 11.0429 5.68935 11.0424 5.68879C11.0418 5.68824 11.0413 5.68768 11.0407 5.68712C11.0402 5.68656 11.0396 5.686 11.039 5.68544C11.0385 5.68488 11.0379 5.68432 11.0374 5.68375C11.0368 5.68319 11.0362 5.68262 11.0357 5.68205C11.0351 5.68149 11.0345 5.68092 11.034 5.68035C11.0334 5.67978 11.0328 5.67921 11.0322 5.67864C11.0317 5.67806 11.0311 5.67749 11.0305 5.67691C11.0299 5.67634 11.0294 5.67576 11.0288 5.67519C11.0282 5.67461 11.0276 5.67403 11.027 5.67345C11.0265 5.67287 11.0259 5.67228 11.0253 5.6717C11.0247 5.67112 11.0241 5.67053 11.0235 5.66995C11.023 5.66936 11.0224 5.66877 11.0218 5.66819C11.0212 5.6676 11.0206 5.66701 11.02 5.66642C11.0194 5.66582 11.0188 5.66523 11.0182 5.66464C11.0176 5.66404 11.0171 5.66345 11.0165 5.66285C11.0159 5.66226 11.0153 5.66166 11.0147 5.66106C11.0141 5.66046 11.0135 5.65986 11.0129 5.65926C11.0123 5.65866 11.0117 5.65805 11.011 5.65745C11.0104 5.65684 11.0098 5.65624 11.0092 5.65563C11.0086 5.65502 11.008 5.65442 11.0074 5.65381C11.0068 5.6532 11.0062 5.65259 11.0056 5.65197C11.005 5.65136 11.0043 5.65075 11.0037 5.65013C11.0031 5.64952 11.0025 5.6489 11.0019 5.64829C11.0013 5.64767 11.0007 5.64705 11 5.64643C10.9994 5.64581 10.9988 5.64519 10.9982 5.64457C10.9975 5.64394 10.9969 5.64332 10.9963 5.6427C10.9957 5.64207 10.995 5.64145 10.9944 5.64082C10.9938 5.64019 10.9932 5.63956 10.9925 5.63893C10.9919 5.6383 10.9913 5.63767 10.9906 5.63704C10.99 5.63641 10.9894 5.63578 10.9887 5.63514C10.9881 5.63451 10.9875 5.63387 10.9868 5.63323C10.9862 5.6326 10.9856 5.63196 10.9849 5.63132C10.9843 5.63068 10.9836 5.63004 10.983 5.6294C10.9824 5.62875 10.9817 5.62811 10.9811 5.62747C10.9804 5.62682 10.9798 5.62618 10.9791 5.62553C10.9785 5.62488 10.9778 5.62424 10.9772 5.62359C10.9765 5.62294 10.9759 5.62229 10.9752 5.62164C10.9746 5.62099 10.9739 5.62033 10.9733 5.61968C10.9726 5.61903 10.972 5.61837 10.9713 5.61772C10.9707 5.61706 10.97 5.6164 10.9693 5.61574C10.9687 5.61509 10.968 5.61443 10.9674 5.61377C10.9667 5.6131 10.966 5.61244 10.9654 5.61178C10.9647 5.61112 10.9641 5.61045 10.9634 5.60979C10.9627 5.60912 10.9621 5.60846 10.9614 5.60779C10.9607 5.60712 10.9601 5.60645 10.9594 5.60578C10.9587 5.60511 10.958 5.60444 10.9574 5.60377C10.9567 5.6031 10.956 5.60242 10.9554 5.60175C10.9547 5.60108 10.954 5.6004 10.9533 5.59972C10.9526 5.59905 10.952 5.59837 10.9513 5.59769C10.9506 5.59701 10.9499 5.59633 10.9493 5.59565C10.9486 5.59497 10.9479 5.59429 10.9472 5.59361C10.9465 5.59292 10.9458 5.59224 10.9452 5.59155C10.9445 5.59087 10.9438 5.59018 10.9431 5.58949C10.9424 5.58881 10.9417 5.58812 10.941 5.58743C10.9403 5.58674 10.9396 5.58605 10.939 5.58536C10.9383 5.58466 10.9376 5.58397 10.9369 5.58328C10.9362 5.58258 10.9355 5.58189 10.9348 5.58119C10.9341 5.5805 10.9334 5.5798 10.9327 5.5791C10.932 5.5784 10.9313 5.57771 10.9306 5.57701C10.9299 5.5763 10.9292 5.5756 10.9285 5.5749C10.9278 5.5742 10.9271 5.5735 10.9264 5.57279C10.9257 5.57209 10.925 5.57138 10.9243 5.57068C10.9236 5.56997 10.9229 5.56926 10.9222 5.56855C10.9214 5.56785 10.9207 5.56714 10.92 5.56643C10.9193 5.56572 10.9186 5.565 10.9179 5.56429C10.9172 5.56358 10.9165 5.56287 10.9158 5.56215C10.915 5.56144 10.9143 5.56072 10.9136 5.56C10.9129 5.55929 10.9122 5.55857 10.9115 5.55785C10.9107 5.55713 10.91 5.55641 10.9093 5.55569C10.9086 5.55497 10.9079 5.55425 10.9071 5.55353C10.9064 5.55281 10.9057 5.55208 10.905 5.55136C10.9042 5.55064 10.9035 5.54991 10.9028 5.54918C10.9021 5.54846 10.9013 5.54773 10.9006 5.547C10.8999 5.54628 10.8991 5.54555 10.8984 5.54482C10.8977 5.54409 10.897 5.54336 10.8962 5.54262C10.8955 5.54189 10.8948 5.54116 10.894 5.54043C10.8933 5.53969 10.8926 5.53896 10.8918 5.53822C10.8911 5.53749 10.8904 5.53675 10.8896 5.53601C10.8889 5.53527 10.8881 5.53454 10.8874 5.5338C10.8867 5.53306 10.8859 5.53232 10.8852 5.53158C10.8844 5.53083 10.8837 5.53009 10.883 5.52935C10.8822 5.52861 10.8815 5.52786 10.8807 5.52712C10.88 5.52637 10.8792 5.52563 10.8785 5.52488C10.8777 5.52413 10.877 5.52339 10.8762 5.52264C10.8755 5.52189 10.8747 5.52114 10.874 5.52039C10.8732 5.51964 10.8725 5.51889 10.8717 5.51814C10.871 5.51739 10.8702 5.51663 10.8695 5.51588C10.8687 5.51513 10.868 5.51437 10.8672 5.51362C10.8665 5.51286 10.8657 5.5121 10.8649 5.51135C10.8642 5.51059 10.8634 5.50983 10.8627 5.50907C10.8619 5.50831 10.8612 5.50756 10.8604 5.50679C10.8596 5.50603 10.8589 5.50527 10.8581 5.50451C10.8574 5.50375 10.8566 5.50299 10.8558 5.50222C10.8551 5.50146 10.8543 5.50069 10.8535 5.49993C10.8528 5.49916 10.852 5.4984 10.8512 5.49763C10.8505 5.49686 10.8497 5.49609 10.8489 5.49533C10.8482 5.49456 10.8474 5.49379 10.8466 5.49302C10.8458 5.49225 10.8451 5.49148 10.8443 5.4907C10.8435 5.48993 10.8428 5.48916 10.842 5.48838C10.8412 5.48761 10.8404 5.48684 10.8397 5.48606C10.8389 5.48529 10.8381 5.48451 10.8373 5.48373C10.8366 5.48296 10.8358 5.48218 10.835 5.4814C10.8342 5.48062 10.8334 5.47984 10.8327 5.47906C10.8319 5.47828 10.8311 5.4775 10.8303 5.47672C10.8295 5.47594 10.8288 5.47516 10.828 5.47438C10.8272 5.47359 10.8264 5.47281 10.8256 5.47203C10.8248 5.47124 10.8241 5.47046 10.8233 5.46967C10.8225 5.46888 10.8217 5.4681 10.8209 5.46731C10.8201 5.46652 10.8193 5.46573 10.8185 5.46495C10.8178 5.46416 10.817 5.46337 10.8162 5.46258C10.8154 5.46179 10.8146 5.461 10.8138 5.4602C10.813 5.45941 10.8122 5.45862 10.8114 5.45783C10.8106 5.45703 10.8098 5.45624 10.809 5.45545C10.8083 5.45465 10.8075 5.45386 10.8067 5.45306C10.8059 5.45226 10.8051 5.45147 10.8043 5.45067C10.8035 5.44987 10.8027 5.44907 10.8019 5.44827C10.8011 5.44748 10.8003 5.44668 10.7995 5.44588C10.7987 5.44508 10.7979 5.44428 10.7971 5.44347C10.7963 5.44267 10.7955 5.44187 10.7947 5.44107C10.7939 5.44026 10.7931 5.43946 10.7923 5.43866C10.7915 5.43785 10.7906 5.43705 10.7898 5.43624C10.789 5.43544 10.7882 5.43463 10.7874 5.43382C10.7866 5.43302 10.7858 5.43221 10.785 5.4314C10.7842 5.43059 10.7834 5.42978 10.7826 5.42897C10.7818 5.42817 10.781 5.42736 10.7801 5.42654C10.7793 5.42573 10.7785 5.42492 10.7777 5.42411C10.7769 5.4233 10.7761 5.42249 10.7753 5.42167C10.7745 5.42086 10.7736 5.42005 10.7728 5.41923C10.772 5.41842 10.7712 5.4176 10.7704 5.41679C10.7696 5.41597 10.7688 5.41515 10.7679 5.41434C10.7671 5.41352 10.7663 5.4127 10.7655 5.41188C10.7647 5.41107 10.7638 5.41025 10.763 5.40943C10.7622 5.40861 10.7614 5.40779 10.7606 5.40697C10.7598 5.40615 10.7589 5.40533 10.7581 5.40451C10.7573 5.40368 10.7565 5.40286 10.7556 5.40204C10.7548 5.40122 10.754 5.40039 10.7532 5.39957C10.7523 5.39875 10.7515 5.39792 10.7507 5.3971C10.7499 5.39627 10.749 5.39545 10.7482 5.39462C10.7474 5.39379 10.7466 5.39297 10.7457 5.39214C10.7449 5.39131 10.7441 5.39048 10.7433 5.38966C10.7424 5.38883 10.7416 5.388 10.7408 5.38717C10.7399 5.38634 10.7391 5.38551 10.7383 5.38468C10.7375 5.38385 10.7366 5.38302 10.7358 5.38219C10.735 5.38136 10.7341 5.38052 10.7333 5.37969C10.7325 5.37886 10.7316 5.37803 10.7308 5.37719C10.73 5.37636 10.7291 5.37552 10.7283 5.37469C10.7275 5.37386 10.7266 5.37302 10.7258 5.37218C10.725 5.37135 10.7241 5.37051 10.7233 5.36968C10.7224 5.36884 10.7216 5.368 10.7208 5.36716C10.7199 5.36633 10.7191 5.36549 10.7183 5.36465C10.7174 5.36381 10.7166 5.36297 10.7157 5.36213C10.7149 5.36129 10.7141 5.36045 10.7132 5.35961C10.7124 5.35877 10.7115 5.35793 10.7107 5.35709C10.7099 5.35625 10.709 5.35541 10.7082 5.35457C10.7073 5.35372 10.7065 5.35288 10.7056 5.35204C10.7048 5.35119 10.704 5.35035 10.7031 5.34951C10.7023 5.34866 10.7014 5.34782 10.7006 5.34697C10.6997 5.34613 10.6989 5.34528 10.698 5.34444C10.6972 5.34359 10.6963 5.34275 10.6955 5.3419C10.6947 5.34105 10.6938 5.3402 10.693 5.33936C10.6921 5.33851 10.6913 5.33766 10.6904 5.33681C10.6896 5.33597 10.6887 5.33512 10.6879 5.33427C10.687 5.33342 10.6862 5.33257 10.6853 5.33172C10.6845 5.33087 10.6836 5.33002 10.6828 5.32917C10.6819 5.32832 10.6811 5.32747 10.6802 5.32661C10.6794 5.32576 10.6785 5.32491 10.6777 5.32406C10.6768 5.32321 10.676 5.32235 10.6751 5.3215C10.6742 5.32065 10.6734 5.31979 10.6725 5.31894C10.6717 5.31809 10.6708 5.31723 10.67 5.31638C10.6691 5.31552 10.6683 5.31467 10.6674 5.31381C10.6666 5.31296 10.6657 5.3121 10.6648 5.31125C10.664 5.31039 10.6631 5.30953 10.6623 5.30868C10.6614 5.30782 10.6606 5.30696 10.6597 5.30611C10.6589 5.30525 10.658 5.30439 10.6571 5.30353C10.6563 5.30268 10.6554 5.30182 10.6546 5.30096C10.6537 5.3001 10.6528 5.29924 10.652 5.29838C10.6511 5.29752 10.6503 5.29666 10.6494 5.2958C10.6485 5.29494 10.6477 5.29408 10.6468 5.29322C10.646 5.29236 10.6451 5.2915 10.6442 5.29064C10.6434 5.28978 10.6425 5.28892 10.6417 5.28806C10.6408 5.28719 10.6399 5.28633 10.6391 5.28547C10.6382 5.28461 10.6373 5.28374 10.6365 5.28288C10.6356 5.28202 10.6348 5.28116 10.6339 5.28029C10.633 5.27943 10.6322 5.27857 10.6313 5.2777C10.6304 5.27684 10.6296 5.27597 10.6287 5.27511C10.6278 5.27424 10.627 5.27338 10.6261 5.27251C10.6253 5.27165 10.6244 5.27078 10.6235 5.26992C10.6227 5.26905 10.6218 5.26819 10.6209 5.26732C10.6201 5.26645 10.6192 5.26559 10.6183 5.26472C10.6175 5.26386 10.6166 5.26299 10.6157 5.26212C10.6149 5.26125 10.614 5.26039 10.6131 5.25952C10.6123 5.25865 10.6114 5.25778 10.6105 5.25692C10.6097 5.25605 10.6088 5.25518 10.6079 5.25431C10.607 5.25344 10.6062 5.25258 10.6053 5.25171C10.6044 5.25084 10.6036 5.24997 10.6027 5.2491C10.6018 5.24823 10.601 5.24736 10.6001 5.24649C10.5992 5.24562 10.5984 5.24475 10.5975 5.24388C10.5966 5.24301 10.5957 5.24214 10.5949 5.24127C10.594 5.2404 10.5931 5.23953 10.5923 5.23866C10.5914 5.23779 10.5905 5.23692 10.5896 5.23605C10.5888 5.23518 10.5879 5.23431 10.587 5.23343C10.5862 5.23256 10.5853 5.23169 10.5844 5.23082C10.5835 5.22995 10.5827 5.22908 10.5818 5.2282C10.5809 5.22733 10.5801 5.22646 10.5792 5.22559C10.5783 5.22472 10.5774 5.22384 10.5766 5.22297C10.5757 5.2221 10.5748 5.22123 10.574 5.22035C10.5731 5.21948 10.5722 5.21861 10.5713 5.21773C10.5705 5.21686 10.5696 5.21599 10.5687 5.21511C10.5678 5.21424 10.567 5.21337 10.5661 5.21249C10.5652 5.21162 10.5643 5.21075 10.5635 5.20987C10.5626 5.209 10.5617 5.20812 10.5609 5.20725C10.56 5.20638 10.5591 5.2055 10.5582 5.20463C10.5574 5.20375 10.5565 5.20288 10.5556 5.202C10.5547 5.20113 10.5539 5.20026 10.553 5.19938C10.5521 5.19851 10.5512 5.19763 10.5504 5.19676C10.5495 5.19588 10.5486 5.19501 10.5477 5.19413C10.5469 5.19326 10.546 5.19238 10.5451 5.19151C10.5442 5.19063 10.5434 5.18976 10.5425 5.18888C10.5416 5.18801 10.5407 5.18713 10.5399 5.18626C10.539 5.18538 10.5381 5.18451 10.5372 5.18363C10.5364 5.18275 10.5355 5.18188 10.5346 5.181C10.5337 5.18013 10.5329 5.17925 10.532 5.17838C10.5311 5.1775 10.5302 5.17663 10.5294 5.17575C10.5285 5.17487 10.5276 5.174 10.5267 5.17312C10.5258 5.17225 10.525 5.17137 10.5241 5.1705C10.5232 5.16962 10.5223 5.16874 10.5215 5.16787C10.5206 5.16699 10.5197 5.16612 10.5188 5.16524C10.518 5.16437 10.5171 5.16349 10.5162 5.16261C10.5153 5.16174 10.5145 5.16086 10.5136 5.15999C10.5127 5.15911 10.5118 5.15824 10.511 5.15736C10.5101 5.15648 10.5092 5.15561 10.5083 5.15473C10.5075 5.15386 10.5066 5.15298 10.5057 5.15211C10.5048 5.15123 10.504 5.15035 10.5031 5.14948C10.5022 5.1486 10.5013 5.14773 10.5005 5.14685C10.4996 5.14598 10.4987 5.1451 10.4978 5.14423C10.497 5.14335 10.4961 5.14247 10.4952 5.1416C10.4943 5.14072 10.4935 5.13985 10.4926 5.13897C10.4917 5.1381 10.4908 5.13722 10.4899 5.13635C10.4891 5.13547 10.4882 5.1346 10.4873 5.13372C10.4864 5.13285 10.4856 5.13197 10.4847 5.1311C10.4838 5.13022 10.483 5.12935 10.4821 5.12847C10.4812 5.1276 10.4803 5.12672 10.4795 5.12585C10.4786 5.12498 10.4777 5.1241 10.4768 5.12323C10.476 5.12235 10.4751 5.12148 10.4742 5.1206C10.4733 5.11973 10.4725 5.11886 10.4716 5.11798C10.4707 5.11711 10.4698 5.11623 10.469 5.11536C10.4681 5.11449 10.4672 5.11361 10.4663 5.11274C10.4655 5.11187 10.4646 5.11099 10.4637 5.11012C10.4628 5.10925 10.462 5.10837 10.4611 5.1075C10.4602 5.10663 10.4594 5.10576 10.4585 5.10488C10.4576 5.10401 10.4567 5.10314 10.4559 5.10226C10.455 5.10139 10.4541 5.10052 10.4532 5.09965C10.4524 5.09878 10.4515 5.0979 10.4506 5.09703C10.4498 5.09616 10.4489 5.09529 10.448 5.09442C10.4471 5.09355 10.4463 5.09267 10.4454 5.0918C10.4445 5.09093 10.4437 5.09006 10.4428 5.08919C10.4419 5.08832 10.4411 5.08745 10.4402 5.08658C10.4393 5.08571 10.4384 5.08484 10.4376 5.08397C10.4367 5.0831 10.4358 5.08223 10.435 5.08136C10.4341 5.08049 10.4332 5.07962 10.4324 5.07875C10.4315 5.07788 10.4306 5.07701 10.4297 5.07614C10.4289 5.07527 10.428 5.0744 10.4271 5.07354C10.4263 5.07267 10.4254 5.0718 10.4245 5.07093C10.4237 5.07006 10.4228 5.06919 10.4219 5.06833C10.4211 5.06746 10.4202 5.06659 10.4193 5.06573C10.4185 5.06486 10.4176 5.06399 10.4167 5.06312C10.4159 5.06226 10.415 5.06139 10.4141 5.06052C10.4133 5.05966 10.4124 5.05879 10.4115 5.05793C10.4107 5.05706 10.4098 5.0562 10.4089 5.05533C10.4081 5.05447 10.4072 5.0536 10.4063 5.05274C10.4055 5.05187 10.4046 5.05101 10.4037 5.05014C10.4029 5.04928 10.402 5.04841 10.4012 5.04755C10.4003 5.04669 10.3994 5.04582 10.3986 5.04496C10.3977 5.0441 10.3968 5.04323 10.396 5.04237C10.3951 5.04151 10.3942 5.04065 10.3934 5.03979C10.3925 5.03892 10.3917 5.03806 10.3908 5.0372C10.3899 5.03634 10.3891 5.03548 10.3882 5.03462C10.3874 5.03376 10.3865 5.0329 10.3856 5.03204C10.3848 5.03118 10.3839 5.03032 10.3831 5.02946C10.3822 5.0286 10.3813 5.02774 10.3805 5.02688C10.3796 5.02602 10.3788 5.02516 10.3779 5.0243C10.377 5.02344 10.3762 5.02259 10.3753 5.02173C10.3745 5.02087 10.3736 5.02001 10.3728 5.01916C10.3719 5.0183 10.371 5.01744 10.3702 5.01659C10.3693 5.01573 10.3685 5.01488 10.3676 5.01402C10.3668 5.01317 10.3659 5.01231 10.3651 5.01146C10.3642 5.0106 10.3633 5.00975 10.3625 5.00889C10.3616 5.00804 10.3608 5.00718 10.3599 5.00633C10.3591 5.00548 10.3582 5.00462 10.3574 5.00377C10.3565 5.00292 10.3557 5.00207 10.3548 5.00122C10.354 5.00036 10.3531 4.99951 10.3523 4.99866C10.3514 4.99781 10.3506 4.99696 10.3497 4.99611C10.3489 4.99526 10.348 4.99441 10.3472 4.99356C10.3463 4.99271 10.3455 4.99186 10.3446 4.99101C10.3438 4.99016 10.3429 4.98932 10.3421 4.98847C10.3412 4.98762 10.3404 4.98677 10.3395 4.98593C10.3387 4.98508 10.3378 4.98423 10.337 4.98339C10.3361 4.98254 10.3353 4.98169 10.3345 4.98085C10.3336 4.98 10.3328 4.97916 10.3319 4.97832C10.3311 4.97747 10.3302 4.97663 10.3294 4.97578C10.3285 4.97494 10.3277 4.9741 10.3269 4.97325C10.326 4.97241 10.3252 4.97157 10.3243 4.97073C10.3235 4.96989 10.3226 4.96905 10.3218 4.9682C10.321 4.96736 10.3201 4.96652 10.3193 4.96568C10.3184 4.96484 10.3176 4.964 10.3168 4.96317C10.3159 4.96233 10.3151 4.96149 10.3143 4.96065C10.3134 4.95981 10.3126 4.95897 10.3117 4.95814C10.3109 4.9573 10.3101 4.95646 10.3092 4.95563C10.3084 4.95479 10.3076 4.95396 10.3067 4.95312C10.3059 4.95229 10.3051 4.95145 10.3042 4.95062C10.3034 4.94979 10.3026 4.94895 10.3017 4.94812C10.3009 4.94729 10.3001 4.94645 10.2992 4.94562C10.2984 4.94479 10.2976 4.94396 10.2967 4.94313C10.2959 4.9423 10.2951 4.94147 10.2942 4.94064C10.2934 4.93981 10.2926 4.93898 10.2918 4.93815C10.2909 4.93732 10.2901 4.93649 10.2893 4.93566C10.2884 4.93484 10.2876 4.93401 10.2868 4.93318C10.286 4.93236 10.2851 4.93153 10.2843 4.93071C10.2835 4.92988 10.2827 4.92905 10.2818 4.92823C10.281 4.92741 10.2802 4.92658 10.2794 4.92576C10.2785 4.92494 10.2777 4.92411 10.2769 4.92329C10.2761 4.92247 10.2752 4.92165 10.2744 4.92083C10.2736 4.92001 10.2728 4.91919 10.272 4.91837C10.2711 4.91755 10.2703 4.91673 10.2695 4.91591C10.2687 4.91509 10.2679 4.91427 10.2671 4.91346C10.2662 4.91264 10.2654 4.91182 10.2646 4.91101C10.2638 4.91019 10.263 4.90937 10.2622 4.90856C10.2613 4.90774 10.2605 4.90693 10.2597 4.90612C10.2589 4.9053 10.2581 4.90449 10.2573 4.90368C10.2565 4.90286 10.2557 4.90205 10.2548 4.90124C10.254 4.90043 10.2532 4.89962 10.2524 4.89881C10.2516 4.898 10.2508 4.89719 10.25 4.89638C10.2492 4.89557 10.2484 4.89477 10.2476 4.89396C10.2468 4.89315 10.2459 4.89234 10.2451 4.89154C10.2443 4.89073 10.2435 4.88993 10.2427 4.88912C10.2419 4.88832 10.2411 4.88751 10.2403 4.88671C10.2395 4.88591 10.2387 4.8851 10.2379 4.8843C10.2371 4.8835 10.2363 4.8827 10.2355 4.8819C10.2347 4.8811 10.2339 4.8803 10.2331 4.8795C10.2323 4.8787 10.2315 4.8779 10.2307 4.8771C10.2299 4.87631 10.2291 4.87551 10.2283 4.87471C10.2275 4.87391 10.2267 4.87312 10.2259 4.87232C10.2251 4.87153 10.2243 4.87073 10.2235 4.86994C10.2227 4.86915 10.222 4.86835 10.2212 4.86756C10.2204 4.86677 10.2196 4.86598 10.2188 4.86519C10.218 4.8644 10.2172 4.86361 10.2164 4.86282C10.2156 4.86203 10.2148 4.86124 10.2141 4.86045C10.2133 4.85966 10.2125 4.85888 10.2117 4.85809C10.2109 4.8573 10.2101 4.85652 10.2093 4.85573C10.2085 4.85495 10.2078 4.85416 10.207 4.85338C10.2062 4.8526 10.2054 4.85181 10.2046 4.85103C10.2039 4.85025 10.2031 4.84947 10.2023 4.84869C10.2015 4.84791 10.2007 4.84713 10.2 4.84635C10.1992 4.84557 10.1984 4.84479 10.1976 4.84402C10.1968 4.84324 10.1961 4.84246 10.1953 4.84169C10.1945 4.84091 10.1937 4.84014 10.193 4.83936C10.1922 4.83859 10.1914 4.83781 10.1906 4.83704C10.1899 4.83627 10.1891 4.8355 10.1883 4.83473C10.1876 4.83396 10.1868 4.83319 10.186 4.83242C10.1852 4.83165 10.1845 4.83088 10.1837 4.83011C10.1829 4.82934 10.1822 4.82858 10.1814 4.82781C10.1806 4.82704 10.1799 4.82628 10.1791 4.82551C10.1784 4.82475 10.1776 4.82399 10.1768 4.82322L9.82327 5.17678C9.82403 5.17754 9.8248 5.1783 9.82556 5.17907C9.82633 5.17983 9.82709 5.1806 9.82786 5.18136C9.82862 5.18213 9.82939 5.1829 9.83016 5.18366C9.83093 5.18443 9.83169 5.1852 9.83246 5.18597C9.83323 5.18674 9.834 5.18751 9.83477 5.18828C9.83555 5.18905 9.83632 5.18982 9.83709 5.19059C9.83786 5.19137 9.83864 5.19214 9.83941 5.19291C9.84018 5.19369 9.84096 5.19446 9.84173 5.19524C9.84251 5.19602 9.84329 5.19679 9.84406 5.19757C9.84484 5.19835 9.84562 5.19912 9.8464 5.1999C9.84718 5.20068 9.84796 5.20146 9.84874 5.20224C9.84952 5.20302 9.8503 5.2038 9.85108 5.20459C9.85186 5.20537 9.85264 5.20615 9.85343 5.20693C9.85421 5.20772 9.855 5.2085 9.85578 5.20929C9.85657 5.21007 9.85735 5.21086 9.85814 5.21164C9.85892 5.21243 9.85971 5.21322 9.8605 5.214C9.86129 5.21479 9.86208 5.21558 9.86286 5.21637C9.86365 5.21716 9.86444 5.21795 9.86524 5.21874C9.86603 5.21953 9.86682 5.22032 9.86761 5.22112C9.8684 5.22191 9.8692 5.2227 9.86999 5.22349C9.87078 5.22429 9.87158 5.22508 9.87237 5.22588C9.87317 5.22667 9.87396 5.22747 9.87476 5.22826C9.87556 5.22906 9.87635 5.22986 9.87715 5.23066C9.87795 5.23145 9.87875 5.23225 9.87955 5.23305C9.88035 5.23385 9.88115 5.23465 9.88195 5.23545C9.88275 5.23625 9.88355 5.23705 9.88435 5.23786C9.88515 5.23866 9.88596 5.23946 9.88676 5.24026C9.88756 5.24107 9.88837 5.24187 9.88917 5.24268C9.88998 5.24348 9.89078 5.24429 9.89159 5.24509C9.89239 5.2459 9.8932 5.2467 9.89401 5.24751C9.89481 5.24832 9.89562 5.24913 9.89643 5.24994C9.89724 5.25074 9.89805 5.25155 9.89886 5.25236C9.89967 5.25317 9.90048 5.25398 9.90129 5.2548C9.9021 5.25561 9.90291 5.25642 9.90373 5.25723C9.90454 5.25804 9.90535 5.25886 9.90616 5.25967C9.90698 5.26048 9.90779 5.2613 9.90861 5.26211C9.90942 5.26293 9.91024 5.26374 9.91105 5.26456C9.91187 5.26537 9.91269 5.26619 9.9135 5.26701C9.91432 5.26783 9.91514 5.26864 9.91596 5.26946C9.91678 5.27028 9.91759 5.2711 9.91841 5.27192C9.91923 5.27274 9.92005 5.27356 9.92088 5.27438C9.9217 5.2752 9.92252 5.27602 9.92334 5.27685C9.92416 5.27767 9.92498 5.27849 9.92581 5.27931C9.92663 5.28014 9.92745 5.28096 9.92828 5.28178C9.9291 5.28261 9.92993 5.28343 9.93075 5.28426C9.93158 5.28508 9.9324 5.28591 9.93323 5.28674C9.93406 5.28756 9.93489 5.28839 9.93571 5.28922C9.93654 5.29005 9.93737 5.29087 9.9382 5.2917C9.93903 5.29253 9.93986 5.29336 9.94068 5.29419C9.94151 5.29502 9.94234 5.29585 9.94318 5.29668C9.94401 5.29751 9.94484 5.29834 9.94567 5.29917C9.9465 5.30001 9.94733 5.30084 9.94817 5.30167C9.949 5.30251 9.94983 5.30334 9.95067 5.30417C9.9515 5.30501 9.95234 5.30584 9.95317 5.30668C9.95401 5.30751 9.95484 5.30835 9.95568 5.30918C9.95651 5.31002 9.95735 5.31085 9.95819 5.31169C9.95902 5.31253 9.95986 5.31337 9.9607 5.3142C9.96154 5.31504 9.96237 5.31588 9.96321 5.31672C9.96405 5.31756 9.96489 5.3184 9.96573 5.31924C9.96657 5.32008 9.96741 5.32092 9.96825 5.32176C9.96909 5.3226 9.96993 5.32344 9.97078 5.32428C9.97162 5.32512 9.97246 5.32597 9.9733 5.32681C9.97414 5.32765 9.97499 5.32849 9.97583 5.32934C9.97668 5.33018 9.97752 5.33102 9.97836 5.33187C9.97921 5.33271 9.98005 5.33356 9.9809 5.3344C9.98174 5.33525 9.98259 5.33609 9.98343 5.33694C9.98428 5.33779 9.98513 5.33863 9.98597 5.33948C9.98682 5.34033 9.98767 5.34117 9.98852 5.34202C9.98936 5.34287 9.99021 5.34372 9.99106 5.34457C9.99191 5.34542 9.99276 5.34626 9.99361 5.34711C9.99446 5.34796 9.99531 5.34881 9.99616 5.34966C9.99701 5.35051 9.99786 5.35136 9.99871 5.35221C9.99956 5.35307 10.0004 5.35392 10.0013 5.35477C10.0021 5.35562 10.003 5.35647 10.0038 5.35733C10.0047 5.35818 10.0055 5.35903 10.0064 5.35988C10.0072 5.36074 10.0081 5.36159 10.0089 5.36245C10.0098 5.3633 10.0106 5.36415 10.0115 5.36501C10.0124 5.36586 10.0132 5.36672 10.0141 5.36757C10.0149 5.36843 10.0158 5.36929 10.0166 5.37014C10.0175 5.371 10.0183 5.37185 10.0192 5.37271C10.0201 5.37357 10.0209 5.37443 10.0218 5.37528C10.0226 5.37614 10.0235 5.377 10.0244 5.37786C10.0252 5.37871 10.0261 5.37957 10.0269 5.38043C10.0278 5.38129 10.0286 5.38215 10.0295 5.38301C10.0304 5.38387 10.0312 5.38473 10.0321 5.38559C10.0329 5.38645 10.0338 5.38731 10.0347 5.38817C10.0355 5.38903 10.0364 5.38989 10.0372 5.39075C10.0381 5.39162 10.039 5.39248 10.0398 5.39334C10.0407 5.3942 10.0416 5.39506 10.0424 5.39593C10.0433 5.39679 10.0441 5.39765 10.045 5.39851C10.0459 5.39938 10.0467 5.40024 10.0476 5.4011C10.0485 5.40197 10.0493 5.40283 10.0502 5.4037C10.0511 5.40456 10.0519 5.40542 10.0528 5.40629C10.0536 5.40715 10.0545 5.40802 10.0554 5.40888C10.0562 5.40975 10.0571 5.41061 10.058 5.41148C10.0588 5.41235 10.0597 5.41321 10.0606 5.41408C10.0614 5.41494 10.0623 5.41581 10.0632 5.41668C10.064 5.41754 10.0649 5.41841 10.0658 5.41928C10.0666 5.42015 10.0675 5.42101 10.0684 5.42188C10.0692 5.42275 10.0701 5.42362 10.071 5.42448C10.0718 5.42535 10.0727 5.42622 10.0736 5.42709C10.0745 5.42796 10.0753 5.42883 10.0762 5.4297C10.0771 5.43056 10.0779 5.43143 10.0788 5.4323C10.0797 5.43317 10.0805 5.43404 10.0814 5.43491C10.0823 5.43578 10.0831 5.43665 10.084 5.43752C10.0849 5.43839 10.0858 5.43926 10.0866 5.44013C10.0875 5.441 10.0884 5.44187 10.0892 5.44274C10.0901 5.44361 10.091 5.44449 10.0919 5.44536C10.0927 5.44623 10.0936 5.4471 10.0945 5.44797C10.0953 5.44884 10.0962 5.44971 10.0971 5.45059C10.098 5.45146 10.0988 5.45233 10.0997 5.4532C10.1006 5.45407 10.1014 5.45495 10.1023 5.45582C10.1032 5.45669 10.1041 5.45756 10.1049 5.45844C10.1058 5.45931 10.1067 5.46018 10.1075 5.46105C10.1084 5.46193 10.1093 5.4628 10.1102 5.46367C10.111 5.46455 10.1119 5.46542 10.1128 5.46629C10.1137 5.46717 10.1145 5.46804 10.1154 5.46891C10.1163 5.46979 10.1172 5.47066 10.118 5.47154C10.1189 5.47241 10.1198 5.47328 10.1207 5.47416C10.1215 5.47503 10.1224 5.47591 10.1233 5.47678C10.1241 5.47765 10.125 5.47853 10.1259 5.4794C10.1268 5.48028 10.1276 5.48115 10.1285 5.48203C10.1294 5.4829 10.1303 5.48378 10.1311 5.48465C10.132 5.48553 10.1329 5.4864 10.1338 5.48728C10.1346 5.48815 10.1355 5.48903 10.1364 5.4899C10.1373 5.49078 10.1381 5.49165 10.139 5.49253C10.1399 5.4934 10.1408 5.49428 10.1416 5.49515C10.1425 5.49603 10.1434 5.4969 10.1443 5.49778C10.1451 5.49865 10.146 5.49953 10.1469 5.50041C10.1478 5.50128 10.1487 5.50216 10.1495 5.50303C10.1504 5.50391 10.1513 5.50478 10.1522 5.50566C10.153 5.50653 10.1539 5.50741 10.1548 5.50829C10.1557 5.50916 10.1565 5.51004 10.1574 5.51091C10.1583 5.51179 10.1592 5.51266 10.16 5.51354C10.1609 5.51442 10.1618 5.51529 10.1627 5.51617C10.1635 5.51704 10.1644 5.51792 10.1653 5.5188C10.1662 5.51967 10.167 5.52055 10.1679 5.52142C10.1688 5.5223 10.1697 5.52317 10.1705 5.52405C10.1714 5.52493 10.1723 5.5258 10.1732 5.52668C10.174 5.52755 10.1749 5.52843 10.1758 5.5293C10.1767 5.53018 10.1775 5.53105 10.1784 5.53193C10.1793 5.53281 10.1802 5.53368 10.1811 5.53456C10.1819 5.53543 10.1828 5.53631 10.1837 5.53718C10.1846 5.53806 10.1854 5.53893 10.1863 5.53981C10.1872 5.54068 10.1881 5.54156 10.1889 5.54244C10.1898 5.54331 10.1907 5.54419 10.1916 5.54506C10.1924 5.54594 10.1933 5.54681 10.1942 5.54769C10.1951 5.54856 10.1959 5.54944 10.1968 5.55031C10.1977 5.55118 10.1986 5.55206 10.1994 5.55293C10.2003 5.55381 10.2012 5.55468 10.2021 5.55556C10.2029 5.55643 10.2038 5.55731 10.2047 5.55818C10.2055 5.55906 10.2064 5.55993 10.2073 5.5608C10.2082 5.56168 10.209 5.56255 10.2099 5.56343C10.2108 5.5643 10.2117 5.56517 10.2125 5.56605C10.2134 5.56692 10.2143 5.56779 10.2152 5.56867C10.216 5.56954 10.2169 5.57041 10.2178 5.57129C10.2187 5.57216 10.2195 5.57303 10.2204 5.57391C10.2213 5.57478 10.2221 5.57565 10.223 5.57652C10.2239 5.5774 10.2248 5.57827 10.2256 5.57914C10.2265 5.58001 10.2274 5.58089 10.2283 5.58176C10.2291 5.58263 10.23 5.5835 10.2309 5.58437C10.2317 5.58524 10.2326 5.58612 10.2335 5.58699C10.2344 5.58786 10.2352 5.58873 10.2361 5.5896C10.237 5.59047 10.2378 5.59134 10.2387 5.59221C10.2396 5.59308 10.2404 5.59396 10.2413 5.59483C10.2422 5.5957 10.2431 5.59657 10.2439 5.59744C10.2448 5.59831 10.2457 5.59918 10.2465 5.60005C10.2474 5.60091 10.2483 5.60178 10.2491 5.60265C10.25 5.60352 10.2509 5.60439 10.2518 5.60526C10.2526 5.60613 10.2535 5.607 10.2544 5.60787C10.2552 5.60873 10.2561 5.6096 10.257 5.61047C10.2578 5.61134 10.2587 5.61221 10.2596 5.61307C10.2604 5.61394 10.2613 5.61481 10.2622 5.61568C10.263 5.61654 10.2639 5.61741 10.2648 5.61828C10.2656 5.61914 10.2665 5.62001 10.2674 5.62087C10.2682 5.62174 10.2691 5.62261 10.27 5.62347C10.2708 5.62434 10.2717 5.6252 10.2726 5.62607C10.2734 5.62693 10.2743 5.6278 10.2752 5.62866C10.276 5.62953 10.2769 5.63039 10.2777 5.63125C10.2786 5.63212 10.2795 5.63298 10.2803 5.63385C10.2812 5.63471 10.2821 5.63557 10.2829 5.63644C10.2838 5.6373 10.2847 5.63816 10.2855 5.63902C10.2864 5.63989 10.2872 5.64075 10.2881 5.64161C10.289 5.64247 10.2898 5.64333 10.2907 5.64419C10.2915 5.64505 10.2924 5.64592 10.2933 5.64678C10.2941 5.64764 10.295 5.6485 10.2959 5.64936C10.2967 5.65022 10.2976 5.65108 10.2984 5.65194C10.2993 5.65279 10.3001 5.65365 10.301 5.65451C10.3019 5.65537 10.3027 5.65623 10.3036 5.65709C10.3044 5.65795 10.3053 5.6588 10.3062 5.65966C10.307 5.66052 10.3079 5.66137 10.3087 5.66223C10.3096 5.66309 10.3104 5.66394 10.3113 5.6648C10.3122 5.66566 10.313 5.66651 10.3139 5.66737C10.3147 5.66822 10.3156 5.66908 10.3164 5.66993C10.3173 5.67079 10.3181 5.67164 10.319 5.67249C10.3198 5.67335 10.3207 5.6742 10.3215 5.67505C10.3224 5.67591 10.3233 5.67676 10.3241 5.67761C10.325 5.67846 10.3258 5.67932 10.3267 5.68017C10.3275 5.68102 10.3284 5.68187 10.3292 5.68272C10.3301 5.68357 10.3309 5.68442 10.3318 5.68527C10.3326 5.68612 10.3335 5.68697 10.3343 5.68782C10.3352 5.68867 10.336 5.68952 10.3369 5.69037C10.3377 5.69122 10.3386 5.69206 10.3394 5.69291C10.3403 5.69376 10.3411 5.69461 10.3419 5.69545C10.3428 5.6963 10.3436 5.69714 10.3445 5.69799C10.3453 5.69884 10.3462 5.69968 10.347 5.70053C10.3479 5.70137 10.3487 5.70222 10.3496 5.70306C10.3504 5.7039 10.3512 5.70475 10.3521 5.70559C10.3529 5.70643 10.3538 5.70728 10.3546 5.70812C10.3555 5.70896 10.3563 5.7098 10.3571 5.71064C10.358 5.71149 10.3588 5.71233 10.3597 5.71317C10.3605 5.71401 10.3613 5.71485 10.3622 5.71569C10.363 5.71653 10.3639 5.71737 10.3647 5.7182C10.3655 5.71904 10.3664 5.71988 10.3672 5.72072C10.3681 5.72156 10.3689 5.72239 10.3697 5.72323C10.3706 5.72407 10.3714 5.7249 10.3722 5.72574C10.3731 5.72657 10.3739 5.72741 10.3747 5.72824C10.3756 5.72908 10.3764 5.72991 10.3772 5.73075C10.3781 5.73158 10.3789 5.73241 10.3797 5.73324C10.3806 5.73408 10.3814 5.73491 10.3822 5.73574C10.3831 5.73657 10.3839 5.7374 10.3847 5.73823C10.3856 5.73906 10.3864 5.73989 10.3872 5.74072C10.388 5.74155 10.3889 5.74238 10.3897 5.74321C10.3905 5.74404 10.3914 5.74487 10.3922 5.74569C10.393 5.74652 10.3938 5.74735 10.3947 5.74817C10.3955 5.749 10.3963 5.74982 10.3971 5.75065C10.398 5.75147 10.3988 5.7523 10.3996 5.75312C10.4004 5.75395 10.4013 5.75477 10.4021 5.75559C10.4029 5.75642 10.4037 5.75724 10.4046 5.75806C10.4054 5.75888 10.4062 5.7597 10.407 5.76052C10.4078 5.76134 10.4087 5.76216 10.4095 5.76298C10.4103 5.7638 10.4111 5.76462 10.4119 5.76544C10.4128 5.76626 10.4136 5.76707 10.4144 5.76789C10.4152 5.76871 10.416 5.76952 10.4168 5.77034C10.4177 5.77116 10.4185 5.77197 10.4193 5.77278C10.4201 5.7736 10.4209 5.77441 10.4217 5.77523C10.4225 5.77604 10.4233 5.77685 10.4242 5.77766C10.425 5.77848 10.4258 5.77929 10.4266 5.7801C10.4274 5.78091 10.4282 5.78172 10.429 5.78253C10.4298 5.78334 10.4306 5.78415 10.4314 5.78495C10.4323 5.78576 10.4331 5.78657 10.4339 5.78738C10.4347 5.78818 10.4355 5.78899 10.4363 5.7898C10.4371 5.7906 10.4379 5.79141 10.4387 5.79221C10.4395 5.79301 10.4403 5.79382 10.4411 5.79462C10.4419 5.79542 10.4427 5.79623 10.4435 5.79703C10.4443 5.79783 10.4451 5.79863 10.4459 5.79943C10.4467 5.80023 10.4475 5.80103 10.4483 5.80183C10.4491 5.80263 10.4499 5.80343 10.4507 5.80422C10.4515 5.80502 10.4523 5.80582 10.4531 5.80661C10.4539 5.80741 10.4547 5.8082 10.4555 5.809C10.4563 5.80979 10.4571 5.81059 10.4579 5.81138C10.4587 5.81217 10.4595 5.81297 10.4603 5.81376C10.461 5.81455 10.4618 5.81534 10.4626 5.81613C10.4634 5.81692 10.4642 5.81771 10.465 5.8185C10.4658 5.81929 10.4666 5.82008 10.4674 5.82086C10.4681 5.82165 10.4689 5.82244 10.4697 5.82322C10.4705 5.82401 10.4713 5.82479 10.4721 5.82558C10.4729 5.82636 10.4736 5.82715 10.4744 5.82793C10.4752 5.82871 10.476 5.82949 10.4768 5.83028C10.4776 5.83106 10.4783 5.83184 10.4791 5.83262C10.4799 5.8334 10.4807 5.83418 10.4814 5.83495C10.4822 5.83573 10.483 5.83651 10.4838 5.83729C10.4846 5.83806 10.4853 5.83884 10.4861 5.83962C10.4869 5.84039 10.4877 5.84116 10.4884 5.84194C10.4892 5.84271 10.49 5.84348 10.4908 5.84426C10.4915 5.84503 10.4923 5.8458 10.4931 5.84657C10.4938 5.84734 10.4946 5.84811 10.4954 5.84888C10.4961 5.84965 10.4969 5.85042 10.4977 5.85118C10.4984 5.85195 10.4992 5.85272 10.5 5.85348C10.5007 5.85425 10.5015 5.85501 10.5023 5.85578C10.503 5.85654 10.5038 5.8573 10.5046 5.85806C10.5053 5.85883 10.5061 5.85959 10.5068 5.86035C10.5076 5.86111 10.5084 5.86187 10.5091 5.86263C10.5099 5.86339 10.5106 5.86414 10.5114 5.8649C10.5122 5.86566 10.5129 5.86641 10.5137 5.86717C10.5144 5.86792 10.5152 5.86868 10.5159 5.86943C10.5167 5.87019 10.5174 5.87094 10.5182 5.87169C10.5189 5.87244 10.5197 5.87319 10.5204 5.87394C10.5212 5.87469 10.5219 5.87544 10.5227 5.87619C10.5234 5.87694 10.5242 5.87769 10.5249 5.87843C10.5257 5.87918 10.5264 5.87993 10.5272 5.88067C10.5279 5.88142 10.5287 5.88216 10.5294 5.8829C10.5301 5.88365 10.5309 5.88439 10.5316 5.88513C10.5324 5.88587 10.5331 5.88661 10.5338 5.88735C10.5346 5.88809 10.5353 5.88883 10.5361 5.88956C10.5368 5.8903 10.5375 5.89104 10.5383 5.89177C10.539 5.89251 10.5397 5.89324 10.5405 5.89398C10.5412 5.89471 10.5419 5.89545 10.5427 5.89618C10.5434 5.89691 10.5441 5.89764 10.5449 5.89837C10.5456 5.8991 10.5463 5.89983 10.5471 5.90056C10.5478 5.90129 10.5485 5.90201 10.5492 5.90274C10.55 5.90346 10.5507 5.90419 10.5514 5.90491C10.5521 5.90564 10.5529 5.90636 10.5536 5.90708C10.5543 5.90781 10.555 5.90853 10.5557 5.90925C10.5565 5.90997 10.5572 5.91069 10.5579 5.91141C10.5586 5.91212 10.5593 5.91284 10.5601 5.91356C10.5608 5.91427 10.5615 5.91499 10.5622 5.9157C10.5629 5.91642 10.5636 5.91713 10.5643 5.91784C10.5651 5.91856 10.5658 5.91927 10.5665 5.91998C10.5672 5.92069 10.5679 5.9214 10.5686 5.92211C10.5693 5.92282 10.57 5.92352 10.5707 5.92423C10.5714 5.92494 10.5721 5.92564 10.5728 5.92635C10.5735 5.92705 10.5742 5.92775 10.5749 5.92845C10.5757 5.92916 10.5764 5.92986 10.5771 5.93056C10.5778 5.93126 10.5785 5.93196 10.5792 5.93266C10.5798 5.93335 10.5805 5.93405 10.5812 5.93475C10.5819 5.93544 10.5826 5.93614 10.5833 5.93683C10.584 5.93753 10.5847 5.93822 10.5854 5.93891C10.5861 5.9396 10.5868 5.94029 10.5875 5.94098C10.5882 5.94167 10.5889 5.94236 10.5895 5.94305C10.5902 5.94373 10.5909 5.94442 10.5916 5.94511C10.5923 5.94579 10.593 5.94648 10.5937 5.94716C10.5943 5.94784 10.595 5.94852 10.5957 5.9492C10.5964 5.94989 10.5971 5.95057 10.5977 5.95124C10.5984 5.95192 10.5991 5.9526 10.5998 5.95328C10.6004 5.95395 10.6011 5.95463 10.6018 5.9553C10.6025 5.95598 10.6031 5.95665 10.6038 5.95732C10.6045 5.95799 10.6052 5.95867 10.6058 5.95934C10.6065 5.96001 10.6072 5.96067 10.6078 5.96134C10.6085 5.96201 10.6092 5.96268 10.6098 5.96334C10.6105 5.96401 10.6112 5.96467 10.6118 5.96533C10.6125 5.966 10.6132 5.96666 10.6138 5.96732C10.6145 5.96798 10.6151 5.96864 10.6158 5.9693C10.6165 5.96996 10.6171 5.97061 10.6178 5.97127C10.6184 5.97192 10.6191 5.97258 10.6197 5.97323C10.6204 5.97389 10.621 5.97454 10.6217 5.97519C10.6223 5.97584 10.623 5.97649 10.6236 5.97714C10.6243 5.97779 10.6249 5.97844 10.6256 5.97908C10.6262 5.97973 10.6269 5.98038 10.6275 5.98102C10.6282 5.98167 10.6288 5.98231 10.6294 5.98295C10.6301 5.98359 10.6307 5.98423 10.6314 5.98487C10.632 5.98551 10.6326 5.98615 10.6333 5.98679C10.6339 5.98742 10.6346 5.98806 10.6352 5.98869C10.6358 5.98933 10.6365 5.98996 10.6371 5.99059C10.6377 5.99123 10.6384 5.99186 10.639 5.99249C10.6396 5.99312 10.6402 5.99374 10.6409 5.99437C10.6415 5.995 10.6421 5.99563 10.6427 5.99625C10.6434 5.99687 10.644 5.9975 10.6446 5.99812C10.6452 5.99874 10.6459 5.99936 10.6465 5.99998C10.6471 6.0006 10.6477 6.00122 10.6483 6.00184C10.649 6.00246 10.6496 6.00307 10.6502 6.00369C10.6508 6.0043 10.6514 6.00491 10.652 6.00553C10.6526 6.00614 10.6532 6.00675 10.6539 6.00736C10.6545 6.00797 10.6551 6.00858 10.6557 6.00918C10.6563 6.00979 10.6569 6.0104 10.6575 6.011C10.6581 6.01161 10.6587 6.01221 10.6593 6.01281C10.6599 6.01341 10.6605 6.01401 10.6611 6.01461C10.6617 6.01521 10.6623 6.01581 10.6629 6.01641C10.6635 6.017 10.6641 6.0176 10.6647 6.01819C10.6653 6.01879 10.6659 6.01938 10.6665 6.01997C10.6671 6.02056 10.6676 6.02115 10.6682 6.02174C10.6688 6.02233 10.6694 6.02292 10.67 6.0235C10.6706 6.02409 10.6712 6.02467 10.6717 6.02525C10.6723 6.02584 10.6729 6.02642 10.6735 6.027C10.6741 6.02758 10.6747 6.02816 10.6752 6.02874C10.6758 6.02932 10.6764 6.02989 10.677 6.03047C10.6775 6.03104 10.6781 6.03162 10.6787 6.03219C10.6793 6.03276 10.6798 6.03333 10.6804 6.0339C10.681 6.03447 10.6815 6.03504 10.6821 6.03561C10.6827 6.03617 10.6832 6.03674 10.6838 6.0373C10.6844 6.03787 10.6849 6.03843 10.6855 6.03899C10.686 6.03955 10.6866 6.04011 10.6872 6.04067C10.6877 6.04123 10.6883 6.04179 10.6888 6.04234C10.6894 6.0429 10.6899 6.04345 10.6905 6.04401C10.6911 6.04456 10.6916 6.04511 10.6922 6.04566C10.6927 6.04621 10.6933 6.04676 10.6938 6.04731C10.6944 6.04786 10.6949 6.0484 10.6954 6.04895C10.696 6.04949 10.6965 6.05003 10.6971 6.05058C10.6976 6.05112 10.6982 6.05166 10.6987 6.0522C10.6992 6.05273 10.6998 6.05327 10.7003 6.05381C10.7008 6.05434 10.7014 6.05488 10.7019 6.05541C10.7024 6.05594 10.703 6.05648 10.7035 6.05701C10.704 6.05754 10.7046 6.05806 10.7051 6.05859C10.7056 6.05912 10.7061 6.05964 10.7067 6.06017C10.7072 6.06069 10.7077 6.06121 10.7082 6.06174C10.7088 6.06226 10.7093 6.06278 10.7098 6.0633C10.7103 6.06381 10.7108 6.06433 10.7113 6.06485C10.7119 6.06536 10.7124 6.06587 10.7129 6.06639C10.7134 6.0669 10.7139 6.06741 10.7144 6.06792C10.7149 6.06843 10.7154 6.06894 10.7159 6.06944C10.7164 6.06995 10.7169 6.07045 10.7175 6.07096C10.718 6.07146 10.7185 6.07196 10.719 6.07246C10.7195 6.07296 10.72 6.07346 10.7205 6.07396C10.7209 6.07445 10.7214 6.07495 10.7219 6.07544C10.7224 6.07594 10.7229 6.07643 10.7234 6.07692C10.7239 6.07741 10.7244 6.0779 10.7249 6.07839C10.7254 6.07888 10.7259 6.07936 10.7263 6.07985C10.7268 6.08033 10.7273 6.08082 10.7278 6.0813C10.7283 6.08178 10.7288 6.08226 10.7292 6.08274C10.7297 6.08322 10.7302 6.08369 10.7307 6.08417C10.7311 6.08465 10.7316 6.08512 10.7321 6.08559C10.7326 6.08606 10.733 6.08653 10.7335 6.087C10.734 6.08747 10.7344 6.08794 10.7349 6.08841C10.7354 6.08887 10.7358 6.08934 10.7363 6.0898C10.7368 6.09026 10.7372 6.09072 10.7377 6.09118C10.7381 6.09164 10.7386 6.0921 10.7391 6.09256C10.7395 6.09301 10.74 6.09347 10.7404 6.09392C10.7409 6.09437 10.7413 6.09483 10.7418 6.09528C10.7422 6.09573 10.7427 6.09617 10.7431 6.09662C10.7436 6.09707 10.744 6.09751 10.7445 6.09796C10.7449 6.0984 10.7453 6.09884 10.7458 6.09928C10.7462 6.09972 10.7467 6.10016 10.7471 6.1006C10.7475 6.10103 10.748 6.10147 10.7484 6.1019C10.7488 6.10233 10.7493 6.10277 10.7497 6.1032C10.7501 6.10363 10.7506 6.10406 10.751 6.10448C10.7514 6.10491 10.7518 6.10533 10.7523 6.10576C10.7527 6.10618 10.7531 6.1066 10.7535 6.10702C10.7539 6.10744 10.7544 6.10786 10.7548 6.10828C10.7552 6.1087 10.7556 6.10911 10.756 6.10952C10.7564 6.10994 10.7568 6.11035 10.7573 6.11076C10.7577 6.11117 10.7581 6.11158 10.7585 6.11199C10.7589 6.11239 10.7593 6.1128 10.7597 6.1132C10.7601 6.1136 10.7605 6.114 10.7609 6.1144C10.7613 6.1148 10.7617 6.1152 10.7621 6.1156C10.7625 6.116 10.7629 6.11639 10.7633 6.11678C10.7637 6.11718 10.7641 6.11757 10.7645 6.11796C10.7648 6.11835 10.7652 6.11873 10.7656 6.11912C10.766 6.11951 10.7664 6.11989 10.7668 6.12027C10.7672 6.12066 10.7675 6.12104 10.7679 6.12142C10.7683 6.12179 10.7687 6.12217 10.769 6.12255C10.7694 6.12292 10.7698 6.1233 10.7702 6.12367C10.7705 6.12404 10.7709 6.12441 10.7713 6.12478C10.7716 6.12515 10.772 6.12551 10.7724 6.12588C10.7727 6.12624 10.7731 6.12661 10.7735 6.12697C10.7738 6.12733 10.7742 6.12769 10.7745 6.12805C10.7749 6.12841 10.7753 6.12876 10.7756 6.12912C10.776 6.12947 10.7763 6.12982 10.7767 6.13017C10.777 6.13052 10.7774 6.13087 10.7777 6.13122C10.7781 6.13157 10.7784 6.13191 10.7788 6.13226C10.7791 6.1326 10.7794 6.13294 10.7798 6.13328C10.7801 6.13362 10.7805 6.13396 10.7808 6.13429C10.7811 6.13463 10.7815 6.13497 10.7818 6.1353C10.7821 6.13563 10.7825 6.13596 10.7828 6.13629C10.7831 6.13662 10.7834 6.13695 10.7838 6.13727C10.7841 6.1376 10.7844 6.13792 10.7847 6.13824C10.7851 6.13856 10.7854 6.13888 10.7857 6.1392C10.786 6.13952 10.7863 6.13983 10.7866 6.14015C10.787 6.14046 10.7873 6.14077 10.7876 6.14108C10.7879 6.14139 10.7882 6.1417 10.7885 6.14201C10.7888 6.14232 10.7891 6.14262 10.7894 6.14292C10.7897 6.14323 10.79 6.14353 10.7903 6.14383C10.7906 6.14412 10.7909 6.14442 10.7912 6.14472C10.7915 6.14501 10.7918 6.14531 10.7921 6.1456C10.7924 6.14589 10.7927 6.14618 10.793 6.14647C10.7932 6.14675 10.7935 6.14704 10.7938 6.14732C10.7941 6.14761 10.7944 6.14789 10.7947 6.14817C10.7949 6.14845 10.7952 6.14873 10.7955 6.149C10.7958 6.14928 10.796 6.14955 10.7963 6.14983C10.7966 6.1501 10.7969 6.15037 10.7971 6.15064C10.7974 6.15091 10.7977 6.15117 10.7979 6.15144C10.7982 6.1517 10.7985 6.15196 10.7987 6.15222C10.799 6.15248 10.7992 6.15274 10.7995 6.153C10.7998 6.15326 10.8 6.15351 10.8003 6.15376C10.8005 6.15402 10.8008 6.15427 10.801 6.15452C10.8013 6.15477 10.8015 6.15501 10.8018 6.15526C10.802 6.1555 10.8022 6.15575 10.8025 6.15599C10.8027 6.15623 10.803 6.15647 10.8032 6.1567C10.8034 6.15694 10.8037 6.15718 10.8039 6.15741C10.8041 6.15764 10.8044 6.15787 10.8046 6.1581C10.8048 6.15833 10.8051 6.15856 10.8053 6.15878C10.8055 6.15901 10.8057 6.15923 10.8059 6.15945C10.8062 6.15967 10.8064 6.15989 10.8066 6.16011C10.8068 6.16033 10.807 6.16054 10.8073 6.16076C10.8075 6.16097 10.8077 6.16118 10.8079 6.16139C10.8081 6.1616 10.8083 6.16181 10.8085 6.16201C10.8087 6.16221 10.8089 6.16242 10.8091 6.16262C10.8093 6.16282 10.8095 6.16302 10.8097 6.16321C10.8099 6.16341 10.8101 6.16361 10.8103 6.1638C10.8105 6.16399 10.8107 6.16418 10.8109 6.16437C10.8111 6.16456 10.8112 6.16475 10.8114 6.16493C10.8116 6.16511 10.8118 6.1653 10.812 6.16548C10.8122 6.16566 10.8123 6.16584 10.8125 6.16601C10.8127 6.16619 10.8129 6.16636 10.813 6.16653C10.8132 6.16671 10.8134 6.16688 10.8135 6.16704C10.8137 6.16721 10.8139 6.16738 10.814 6.16754C10.8142 6.1677 10.8144 6.16787 10.8145 6.16803C10.8147 6.16818 10.8148 6.16834 10.815 6.1685C10.8151 6.16865 10.8153 6.16881 10.8155 6.16896C10.8156 6.16911 10.8158 6.16926 10.8159 6.1694C10.816 6.16955 10.8162 6.16969 10.8163 6.16984C10.8165 6.16998 10.8166 6.17012 10.8168 6.17026C10.8169 6.1704 10.817 6.17053 10.8172 6.17067C10.8173 6.1708 10.8174 6.17093 10.8176 6.17106C10.8177 6.17119 10.8178 6.17132 10.8179 6.17144C10.8181 6.17157 10.8182 6.17169 10.8183 6.17181C10.8184 6.17193 10.8185 6.17205 10.8187 6.17217C10.8188 6.17229 10.8189 6.1724 10.819 6.17251C10.8191 6.17263 10.8192 6.17274 10.8193 6.17284C10.8194 6.17295 10.8196 6.17306 10.8197 6.17316C10.8198 6.17327 10.8199 6.17337 10.82 6.17347C10.8201 6.17357 10.8202 6.17366 10.8203 6.17376C10.8203 6.17385 10.8204 6.17395 10.8205 6.17404C10.8206 6.17413 10.8207 6.17421 10.8208 6.1743C10.8209 6.17439 10.821 6.17447 10.821 6.17455C10.8211 6.17463 10.8212 6.17471 10.8213 6.17479C10.8214 6.17487 10.8214 6.17494 10.8215 6.17502C10.8216 6.17509 10.8217 6.17516 10.8217 6.17523C10.8218 6.1753 10.8219 6.17536 10.8219 6.17543C10.822 6.17549 10.822 6.17555 10.8221 6.17561C10.8222 6.17567 10.8222 6.17573 10.8223 6.17578C10.8223 6.17584 10.8224 6.17589 10.8224 6.17594C10.8225 6.17599 10.8225 6.17604 10.8226 6.17609C10.8226 6.17613 10.8227 6.17617 10.8227 6.17622C10.8228 6.17626 10.8228 6.1763 10.8228 6.17633C10.8229 6.17637 10.8229 6.1764 10.8229 6.17644C10.823 6.17647 10.823 6.1765 10.823 6.17653C10.823 6.17655 10.8231 6.17658 10.8231 6.1766C10.8231 6.17663 10.8231 6.17665 10.8232 6.17667C10.8232 6.17668 10.8232 6.1767 10.8232 6.17671C10.8232 6.17673 10.8232 6.17674 10.8232 6.17675C10.8233 6.17676 10.8233 6.17677 10.8233 6.17677C10.8233 6.17677 10.8233 6.17678 11 6Z" fill="white"/>
</svg>
