<svg width="80" height="92" viewBox="0 0 80 92" fill="none" xmlns="http://www.w3.org/2000/svg">
<path d="M49.7889 81.5017C48.3613 84.7588 47.4176 88.2934 47.0561 92L77.2672 85.3922C78.6948 82.1358 79.6378 78.6005 80 74.8938L49.7889 81.5017Z" fill="#231F20"/>
<path d="M77.2671 65.5955C78.6947 62.3392 79.6384 58.8039 79.9999 55.0972L56.4664 60.2471V50.347L77.2664 45.799C78.694 42.5426 79.6377 39.0073 79.9992 35.3006L56.4657 40.4462V4.84241C52.8597 6.92568 49.6572 9.69874 47.0539 12.9697V42.5053L37.6421 44.5637V0C34.036 2.08254 30.8335 4.85632 28.2302 8.12731V46.6213L7.1712 51.2257C5.74359 54.4821 4.79921 58.0174 4.43697 61.7241L28.2302 56.5214V68.9888L2.7311 74.5642C1.30349 77.8206 0.359812 81.3559 -0.00171661 85.0626L26.6887 79.2265C28.8615 78.7615 30.7289 77.4398 31.943 75.6209L36.8379 68.154V68.1526C37.346 67.38 37.6421 66.4486 37.6421 65.4454V54.463L47.0539 52.4047V72.2049L77.2664 65.5941L77.2671 65.5955Z" fill="#231F20"/>
</svg>
